<!-- Generated by IcoMoon.io -->
<svg version="1.1" xmlns="http://www.w3.org/2000/svg" width="36" height="36" viewBox="0 0 36 36">
<title>airConditioner</title>
<path class="fill-primary" fill="#009fdf" d="M34.089 17.433h-3.322l1.050-1.749c0.175-0.262 0.087-0.525-0.175-0.612-0.262-0.175-0.525-0.087-0.612 0.175l-1.312 2.274h-2.536l2.623-4.547c0.175-0.262 0.087-0.525-0.175-0.612s-0.525-0.087-0.612 0.175l-2.886 4.984h-4.897l-1.399-2.536 2.361-4.11h5.771c0.262 0 0.437-0.175 0.437-0.437s-0.175-0.437-0.437-0.437h-5.247l1.312-2.187h2.536c0.262 0 0.525-0.175 0.525-0.437s-0.175-0.437-0.525-0.437h-2.011l1.662-2.886c0.087-0.262 0.087-0.525-0.175-0.612-0.262-0.175-0.525-0.087-0.612 0.175l-1.662 2.886-1.050-1.749c-0.175-0.262-0.437-0.35-0.612-0.175-0.262 0.175-0.35 0.437-0.175 0.612l1.312 2.274-1.312 2.187-2.623-4.547c-0.175-0.262-0.438-0.35-0.612-0.175-0.262 0.175-0.35 0.437-0.175 0.612l2.886 4.984-2.361 4.11h-0.962v0.962h0.962l0.262 0.437 0.874 1.574 0.262 0.437-0.262 0.438-0.874 1.574-0.262 0.437h-0.962v0.962h1.050l2.361 4.11-2.886 4.984c-0.087 0.262-0.087 0.525 0.175 0.612 0.087 0.087 0.175 0.087 0.262 0.087 0.175 0 0.35-0.087 0.437-0.262l2.623-4.547 1.312 2.187-1.312 2.274c-0.087 0.262-0.087 0.525 0.175 0.612 0.087 0.087 0.175 0.087 0.262 0.087 0.175 0 0.35-0.087 0.437-0.262l1.050-1.749 1.662 2.886c0.087 0.175 0.262 0.262 0.438 0.262 0.087 0 0.175 0 0.262-0.087 0.262-0.087 0.35-0.438 0.175-0.612l-1.662-2.886h2.011c0.262 0 0.437-0.175 0.437-0.437s-0.175-0.438-0.437-0.438h-2.536l-1.312-2.186h5.247c0.262 0 0.437-0.175 0.437-0.437s-0.175-0.438-0.437-0.438h-5.771l-2.361-4.11 1.399-2.536h4.81l2.886 4.984c0.087 0.175 0.262 0.262 0.437 0.262 0.087 0 0.175 0 0.262-0.087 0.262-0.087 0.35-0.437 0.175-0.612l-2.623-4.547h2.536l1.312 2.274c0.087 0.175 0.262 0.262 0.438 0.262 0.087 0 0.175 0 0.262-0.087 0.262-0.175 0.35-0.437 0.175-0.612l-1.050-1.749h3.323c0.262 0 0.437-0.175 0.437-0.438-0.35-0.525-0.612-0.787-0.874-0.787z"></path>
<path class="fill-secondary" fill="#003a70" d="M14.153 25.479l2.361-4.11h0.874v-0.962h-0.874l-0.262-0.438-0.874-1.574-0.262-0.437 0.262-0.437 0.874-1.574 0.262-0.437h0.874v-0.962h-0.874l-2.361-4.11 2.886-4.984c0.087-0.262 0.087-0.525-0.175-0.612s-0.525-0.087-0.612 0.175l-2.623 4.547-1.312-2.187 1.312-2.274c0.175-0.262 0.087-0.525-0.175-0.612s-0.525-0.087-0.612 0.175l-1.050 1.749-1.662-2.886c-0.087-0.262-0.437-0.35-0.612-0.175-0.262 0.175-0.35 0.437-0.175 0.612l1.662 2.886h-2.011c-0.262 0-0.525 0.175-0.525 0.437s0.175 0.437 0.525 0.437h2.536l1.312 2.187h-5.247c-0.262 0-0.437 0.175-0.437 0.437s0.175 0.437 0.437 0.437h5.771l2.361 4.11-1.399 2.536h-4.81l-2.886-4.984c-0.175-0.262-0.437-0.35-0.612-0.175-0.262 0.175-0.35 0.437-0.175 0.612l2.623 4.547h-2.536l-1.312-2.274c-0.175-0.262-0.437-0.35-0.612-0.175-0.262 0.087-0.35 0.437-0.175 0.612l1.050 1.749h-3.322c-0.262 0-0.437 0.175-0.525 0.437 0 0.262 0.175 0.437 0.437 0.437h3.322l-1.050 1.749c-0.087 0.262-0.087 0.525 0.175 0.612 0.087 0.087 0.175 0.087 0.262 0.087 0.175 0 0.35-0.087 0.437-0.262l1.312-2.274h2.536l-2.623 4.547c-0.087 0.262-0.087 0.525 0.175 0.612 0.087 0 0.175 0.087 0.262 0.087 0.175 0 0.35-0.087 0.437-0.262l2.886-4.984h4.81l1.399 2.536-2.361 4.11h-5.771c-0.262 0-0.437 0.175-0.437 0.437s0.175 0.437 0.437 0.437h5.247l-1.312 2.187h-2.536c-0.262 0-0.437 0.175-0.437 0.437s0.175 0.438 0.437 0.438h2.011l-1.662 2.886c-0.087 0.262-0.087 0.525 0.175 0.612 0.087 0 0.175 0.087 0.262 0.087 0.175 0 0.35-0.087 0.437-0.262l1.662-2.886 1.050 1.749c0.087 0.175 0.262 0.262 0.437 0.262 0.087 0 0.175 0 0.262-0.087 0.262-0.175 0.262-0.437 0.175-0.612l-1.312-2.274 1.312-2.186 2.623 4.547c0.087 0.175 0.262 0.262 0.437 0.262 0.087 0 0.175 0 0.262-0.087 0.262-0.087 0.35-0.437 0.175-0.612l-3.235-4.635z"></path>
</svg>
