<!-- Generated by IcoMoon.io -->
<svg version="1.1" xmlns="http://www.w3.org/2000/svg" width="36" height="36" viewBox="0 0 36 36">
<title>beds</title>
<path class="fill-secondary" fill="#003a70" d="M33.81 14.661h-3.653v-8.26c0-0.416-0.253-0.772-0.613-0.926l-0.007-0.003c-0.112-0.047-0.241-0.075-0.377-0.075-0.003 0-0.005 0-0.008 0h-22.32c-0.002 0-0.005 0-0.008 0-0.413 0-0.766 0.252-0.916 0.61l-0.003 0.007c-0.048 0.114-0.077 0.246-0.077 0.386v8.26h-3.632c-0.001 0-0.001 0-0.002 0-0.415 0-0.771 0.255-0.92 0.616l-0.003 0.007c-0.046 0.112-0.073 0.241-0.073 0.377 0 0.003 0 0.005 0 0.008v0 8.040c0 0.002 0 0.003 0 0.005 0 0.414 0.25 0.77 0.608 0.924l0.007 0.003c0.121 0.050 0.252 0.077 0.383 0.077h1.256v4.8c-0.002 0.022-0.003 0.048-0.003 0.074 0 0.411 0.244 0.765 0.596 0.923l0.007 0.003c0.118 0.053 0.256 0.084 0.401 0.084 0.436 0 0.806-0.279 0.943-0.668l0.002-0.007c0.036-0.099 0.057-0.214 0.057-0.334 0-0.026-0.001-0.052-0.003-0.078v0.004-4.807h25.075v4.806c-0.002 0.022-0.003 0.048-0.003 0.074 0 0.411 0.244 0.765 0.596 0.923l0.007 0.003c0.118 0.053 0.257 0.084 0.403 0.084 0.436 0 0.806-0.279 0.944-0.668l0.002-0.007c0.035-0.099 0.056-0.213 0.056-0.332 0-0.027-0.001-0.054-0.003-0.080v0.004-4.807h1.273c0.001 0 0.002 0 0.003 0 0.415 0 0.77-0.255 0.919-0.616l0.003-0.007c0.046-0.112 0.073-0.241 0.073-0.377 0-0.003 0-0.005 0-0.008v0-8.036c-0.005-0.549-0.448-0.995-0.997-1.002h-0.001l0.006-0.006zM7.848 7.409h20.28v7.252h-2.172c0.134-0.28 0.212-0.609 0.212-0.957 0-0.622-0.252-1.187-0.658-1.595v0c-0.406-0.409-0.97-0.663-1.593-0.664h-11.834c-0.004 0-0.008 0-0.011 0-0.795 0-1.494 0.414-1.893 1.037l-0.006 0.009c-0.223 0.345-0.354 0.766-0.354 1.219 0 0.35 0.079 0.681 0.22 0.977l-0.006-0.014h-2.187v-7.263zM11.837 13.709c0.001-0.146 0.118-0.263 0.263-0.265h11.833c0 0 0 0 0 0 0.146 0 0.264 0.118 0.264 0.264 0 0.001 0 0.002 0 0.003v0c-0.001 0.146-0.118 0.264-0.264 0.265h-11.833c0 0 0 0 0 0-0.146 0-0.264-0.118-0.264-0.264 0 0 0-0.001 0-0.001v0zM32.806 22.7h-29.606v-6.029h29.606v6.029z"></path>
</svg>
