<!-- Generated by IcoMoon.io -->
<svg version="1.1" xmlns="http://www.w3.org/2000/svg" width="36" height="36" viewBox="0 0 36 36">
<title>call-us</title>
<path class="stroke-secondary" fill="none" stroke="#003a70" stroke-linejoin="miter" stroke-linecap="butt" stroke-miterlimit="4" stroke-width="1" d="M26.901 23.521c-1.118-1.103-2.511-1.103-3.621 0-0.848 0.84-1.694 1.682-2.527 2.535-0.227 0.235-0.42 0.284-0.697 0.128-0.548-0.299-1.13-0.541-1.658-0.869-2.455-1.543-4.51-3.53-6.332-5.764-0.904-1.11-1.708-2.298-2.27-3.636-0.115-0.272-0.093-0.449 0.128-0.67 0.846-0.819 1.671-1.658 2.505-2.496 1.16-1.168 1.16-2.534-0.007-3.709-0.658-0.669-1.319-1.323-1.983-1.993-0.685-0.681-1.359-1.372-2.047-2.047-1.118-1.089-2.511-1.089-3.624 0.009-0.853 0.837-1.671 1.699-2.539 2.524-0.805 0.761-1.21 1.693-1.296 2.782-0.135 1.772 0.299 3.443 0.911 5.074 1.254 3.373 3.161 6.372 5.475 9.118 3.123 3.715 6.852 6.654 11.215 8.774 1.963 0.954 3.999 1.687 6.211 1.809 1.523 0.083 2.847-0.3 3.906-1.49 0.727-0.811 1.545-1.55 2.315-2.326 1.138-1.154 1.144-2.549 0.013-3.687-1.352-1.359-2.711-2.711-4.071-4.063l-0.005-0.002z"></path>
<path class="fill-primary" fill="#009fdf" d="M25.542 17.85l2.627-0.448c-0.413-2.412-1.553-4.597-3.282-6.332-1.829-1.83-4.142-2.983-6.688-3.339l-0.367 2.639c1.971 0.278 3.765 1.168 5.18 2.583 1.339 1.339 2.213 3.031 2.533 4.896h-0.004zM29.649 6.436c-3.031-3.033-6.866-4.947-11.104-5.537l-0.369 2.639c3.656 0.513 6.973 2.17 9.591 4.782 2.484 2.485 4.113 5.623 4.704 9.074l2.624-0.448c-0.69-4-2.575-7.629-5.45-10.51h0.005z"></path>
</svg>
