<svg width="1209" height="622" viewBox="0 0 1209 622" fill="none" xmlns="http://www.w3.org/2000/svg">
<path d="M228.845 620.674V594.384H203.955V620.674H195.395V565.518H203.955V590.408H228.845V565.518H237.406V620.674H228.845Z" fill="#A48E82"/>
<path d="M254.792 593.49C254.792 577.525 267.41 564.198 283.374 564.198C299.521 564.198 311.794 575.842 311.794 592.699C311.794 608.663 299.095 621.991 283.11 621.991C266.963 621.991 254.792 610.245 254.792 593.49ZM302.706 593.652C302.706 577.85 293.618 568.052 283.029 568.052C272.522 568.052 263.799 576.957 263.799 592.415C263.799 608.298 272.887 618.096 283.394 618.096C293.902 618.096 302.706 609.191 302.706 593.652Z" fill="#A48E82"/>
<path d="M336.237 620.674V569.494H332.525C326.602 569.494 322.2 570.103 318.406 571.259V565.518H362.527V571.259C358.733 570.103 354.311 569.494 348.408 569.494H344.797V620.674H336.237Z" fill="#A48E82"/>
<path d="M378.68 620.674V565.518H412.211V571.259C408.418 570.103 404.807 569.494 396.51 569.494H387.159V590.672H405.071V594.648H387.159V616.718H396.51C404.807 616.718 408.418 616.008 412.211 614.953V620.694H378.68V620.674Z" fill="#A48E82"/>
<path d="M430.122 620.674V565.518H438.5V616.698H447.933C456.229 616.698 459.84 615.988 463.634 615.116V620.674H430.122Z" fill="#A48E82"/>
<path d="M475.919 612.274C480.503 615.804 485.087 618.096 490.93 618.096C499.835 618.096 503.547 612.72 503.547 607.852C503.547 602.821 500.727 599.373 489.084 595.417C478.15 591.705 473.809 586.938 473.809 579.27C473.809 571.947 479.286 564.178 492.512 564.178C498.963 564.178 505.494 565.76 508.578 567.261L506.732 573.184C502.33 569.736 497.725 568.072 491.903 568.072C485.027 568.072 480.97 572.393 480.97 576.978C480.97 582.455 484.682 585.356 494.561 588.885C506.914 593.287 511.053 598.156 511.053 605.823C511.053 614.12 504.967 621.971 490.402 621.971C484.317 621.971 477.521 620.206 474.073 618.36L475.919 612.274Z" fill="#A48E82"/>
<path d="M593.109 620.672L586.658 612.903C582.683 618.826 578.281 621.991 569.984 621.991C559.395 621.991 553.391 614.932 553.391 606.899C553.391 600.367 558.239 594.2 565.927 590.123L567.164 589.413L566.819 588.966C562.945 584.118 559.679 579.879 559.679 575.821C559.679 568.681 563.736 564.178 574.244 564.178C583.413 564.178 587.571 569.817 587.571 575.477C587.571 580.852 584.569 584.564 578.828 588.277L576.8 589.514L587.997 602.842L595.685 590.407H600.534L590.736 606.209L602.745 620.672H593.109ZM569.457 592.151L567.955 593.125C564.162 595.498 561.342 600.184 561.342 605.296C561.342 611.564 566.028 616.595 571.668 616.595C577.043 616.595 581.121 614.12 583.94 609.536L569.457 592.151ZM574.487 586.776C578.281 583.854 579.863 580.426 579.863 576.268C579.863 571.318 577.489 568.052 573.514 568.052C570.065 568.052 567.428 570.527 567.428 574.584C567.428 577.769 569.456 580.487 571.404 582.962L574.487 586.776Z" fill="#A48E82"/>
<path d="M675.958 620.674L661.758 596.94L654.09 596.676V620.674H645.53V565.599L662.732 565.254C676.668 564.991 682.591 570.995 682.591 579.109C682.591 586.513 677.824 592.254 669.791 594.81L685.755 620.674H675.958ZM654.07 569.393V592.335C655.571 592.599 657.863 592.782 659.628 592.782C667.661 592.782 673.564 588.643 673.564 580.955C673.564 573.267 668.98 569.393 660.318 569.393H654.07Z" fill="#A48E82"/>
<path d="M701.633 620.674V565.518H735.164V571.259C731.371 570.103 727.76 569.494 719.464 569.494H710.112V590.672H728.024V594.648H710.112V616.718H719.464C727.76 616.718 731.371 616.008 735.164 614.953V620.694H701.633V620.674Z" fill="#A48E82"/>
<path d="M750.793 612.274C755.378 615.804 759.962 618.096 765.804 618.096C774.71 618.096 778.422 612.72 778.422 607.852C778.422 602.821 775.602 599.373 763.958 595.417C753.025 591.705 748.684 586.938 748.684 579.27C748.684 571.947 754.161 564.178 767.387 564.178C773.837 564.178 780.369 565.76 783.452 567.261L781.607 573.184C777.205 569.736 772.6 568.072 766.778 568.072C759.901 568.072 755.844 572.393 755.844 576.978C755.844 582.455 759.557 585.356 769.435 588.885C781.789 593.287 785.927 598.156 785.927 605.823C785.927 614.12 779.842 621.971 765.277 621.971C759.191 621.971 752.396 620.206 748.947 618.36L750.793 612.274Z" fill="#A48E82"/>
<path d="M800.652 593.49C800.652 577.525 813.269 564.198 829.234 564.198C845.381 564.198 857.653 575.842 857.653 592.699C857.653 608.663 844.955 621.991 828.97 621.991C812.823 621.991 800.652 610.245 800.652 593.49ZM848.566 593.652C848.566 577.85 839.478 568.052 828.889 568.052C818.381 568.052 809.659 576.957 809.659 592.415C809.659 608.298 818.746 618.096 829.254 618.096C839.762 618.096 848.566 609.191 848.566 593.652Z" fill="#A48E82"/>
<path d="M905.487 620.674L891.287 596.94L883.62 596.676V620.674H875.059V565.599L892.261 565.254C906.197 564.991 912.12 570.995 912.12 579.109C912.12 586.513 907.353 592.254 899.32 594.81L915.285 620.674H905.487ZM883.599 569.393V592.335C885.1 592.599 887.393 592.782 889.157 592.782C897.19 592.782 903.093 588.643 903.093 580.955C903.093 573.267 898.509 569.393 889.847 569.393H883.599Z" fill="#A48E82"/>
<path d="M942.627 620.674V569.494H938.915C932.992 569.494 928.59 570.103 924.796 571.259V565.518H968.917V571.259C965.123 570.103 960.701 569.494 954.798 569.494H951.188V620.674H942.627Z" fill="#A48E82"/>
<path d="M981.444 612.274C986.029 615.804 990.613 618.096 996.455 618.096C1005.36 618.096 1009.07 612.72 1009.07 607.852C1009.07 602.821 1006.25 599.373 994.609 595.417C983.675 591.705 979.334 586.938 979.334 579.27C979.334 571.947 984.811 564.178 998.037 564.178C1004.49 564.178 1011.02 565.76 1014.1 567.261L1012.26 573.184C1007.86 569.736 1003.25 568.072 997.429 568.072C990.552 568.072 986.495 572.393 986.495 576.978C986.495 582.455 990.207 585.356 1000.09 588.885C1012.44 593.287 1016.58 598.156 1016.58 605.823C1016.58 614.12 1010.49 621.971 995.928 621.971C989.842 621.971 983.047 620.206 979.598 618.36L981.444 612.274Z" fill="#A48E82"/>
<path d="M633.924 73.381H625.1V69.3847C631.49 69.3847 636.764 64.1714 636.764 57.7207C636.764 51.2902 631.49 46.0566 625.1 46.0566H624.978H585.26H585.138C578.748 46.0566 573.474 51.3105 573.474 57.7207C573.474 64.1511 578.748 69.3847 585.138 69.3847V73.381H576.334H576.314C563.453 73.381 553.006 83.8279 553.006 96.6685C553.006 109.529 563.453 120.037 576.314 120.037V127.705H576.334H633.904H633.924V120.037C646.785 120.037 657.232 109.55 657.232 96.6685C657.232 83.8076 646.785 73.381 633.924 73.381Z" fill="#A48E82"/>
<path d="M486.437 206.377L544.717 105.822L605.106 206.377H486.437Z" fill="#A48E82"/>
<path d="M723.839 206.377L665.559 105.822L605.15 206.377H723.839Z" fill="#A48E82"/>
<path d="M628.366 40.2368L605.18 -0.00927734L581.893 40.2368H628.366Z" fill="#A48E82"/>
<path d="M108.398 452.528C108.357 452.568 108.296 452.609 108.256 452.65C108.296 452.629 108.357 452.589 108.398 452.528Z" fill="#A48E82"/>
<path d="M0.989346 455.65C0.948775 455.609 0.928488 455.548 0.908203 455.487C0.928488 455.548 0.969061 455.609 0.989346 455.65Z" fill="#A48E82"/>
<path d="M145.668 455.485C138.954 455.485 125.322 455.485 110.392 455.12C108.81 455.039 107.41 454.958 106.619 454.836C106.822 454.816 107.126 454.755 107.491 454.735C108.83 454.37 109.784 453.558 110.311 452.463C110.879 451.266 110.899 449.866 110.331 448.507L95.381 410.046C94.7927 408.586 93.7379 407.856 92.2165 407.856H50.5506C48.6235 407.856 47.9541 409.093 47.5484 410.29L37.4869 435.829C35.4786 440.839 34.5861 445.424 34.5861 447.736C34.5861 452.503 37.568 454.917 43.4507 454.917H46.2501C47.4672 454.917 47.7715 455.039 47.8121 455.08C47.6092 455.283 47.3252 455.506 45.885 455.506C42.903 455.506 39.3734 455.364 35.8844 455.222C32.4156 455.08 28.9671 454.938 26.0663 454.938C25.3969 454.938 23.916 454.999 21.8875 455.08C17.5465 455.242 10.6495 455.506 4.0162 455.506C2.25138 455.506 1.90654 455.283 1.86597 455.222C4.44219 454.917 7.14014 454.735 8.68181 454.532C18.3782 453.274 22.1107 445.769 25.6809 436.843L72.5804 320.994C74.3858 316.612 75.5015 314.381 76.5157 314.381C77.3474 314.381 78.3008 315.821 79.9034 319.533C81.9522 324.219 89.2752 342.334 97.795 363.329C107.938 388.361 119.744 417.491 126.255 432.948C133.294 449.643 138.994 453.011 143.66 454.126C146.926 454.775 149.908 454.917 151.835 454.917C152.687 454.917 152.93 454.999 152.991 455.019C152.241 455.485 147.291 455.485 145.668 455.485ZM71.8501 349.718C71.1807 349.718 69.9636 350.063 69.3753 352.456L52.2343 398.078C51.9097 399.356 52.2343 400.086 52.5385 400.472L52.9443 400.999L54.2831 401.263H89.3766L90.6546 400.37C91.0603 399.823 91.1617 399.072 90.9182 398.321L74.0815 352.314C73.8786 351.422 73.4729 349.718 71.8501 349.718Z" fill="#A48E82"/>
<path d="M299.013 457.717C297.329 457.717 294.935 455.303 293.637 454.005C286.598 447.311 275.279 435.931 263.169 423.739C254.933 415.483 246.352 406.842 238.502 399.052C221.807 382.519 204.747 364.08 197.465 356.209L193.651 352.112H191.623L191.095 353.532L193.144 431.448C193.489 445.343 195.659 451.733 200.609 453.457C204.098 454.695 207.871 454.837 210.792 454.837C212.293 454.837 212.638 455.06 212.679 455.08C212.679 455.08 212.658 455.08 212.638 455.08C212.476 455.08 211.969 455.425 209.656 455.425C201.806 455.425 195.903 455.182 191.765 455.019C189.493 454.938 187.748 454.857 186.49 454.857C185.983 454.857 184.868 454.897 183.265 454.979C179.533 455.141 173.143 455.425 166.307 455.425C164.339 455.425 163.73 455.242 163.588 455.1C163.507 455.08 163.811 454.857 165.171 454.857C167.158 454.857 170.952 454.735 173.954 453.863C179.938 452.017 180.567 445.688 180.75 429.358L182.433 319.31C182.433 315.375 183.123 314.32 183.468 314.32C184.502 314.32 185.801 315.761 187.606 317.749L189.371 319.676C191.176 321.623 219.596 351.564 247.346 379.132C254.608 386.414 266.009 398.342 274.995 407.775C281.709 414.834 287.126 420.473 288.485 421.751L288.87 422.137H290.838L291.73 420.717L289.864 336.817C289.681 325.335 287.937 320.933 282.663 318.742C279.6 317.505 274.975 317.505 272.216 317.505C270.877 317.505 270.593 317.282 270.573 317.262C270.755 317.14 271.526 316.917 274.082 316.917C280.005 316.917 285.645 317.12 290.047 317.282C292.866 317.383 295.158 317.465 296.7 317.465C297.37 317.465 298.587 317.404 300.209 317.323C303.577 317.16 308.831 316.897 314.997 316.897C317.107 316.897 317.756 317.099 317.939 317.221C317.817 317.221 317.371 317.465 315.951 317.465C314.044 317.465 312.421 317.465 310.007 318.073C303.496 319.939 302.218 325.335 302.035 335.275L299.986 453.193C300.047 454.654 299.946 457.717 299.013 457.717Z" fill="#A48E82"/>
<path d="M454.298 455.485C447.583 455.485 433.951 455.485 419.021 455.12C417.439 455.039 416.04 454.958 415.248 454.836C415.451 454.816 415.756 454.755 416.121 454.735C417.46 454.37 418.413 453.538 418.94 452.463C419.508 451.266 419.508 449.866 418.94 448.507L403.99 410.046C403.402 408.586 402.347 407.856 400.826 407.856H359.16C357.233 407.856 356.563 409.093 356.157 410.29L346.096 435.809C344.088 440.84 343.195 445.424 343.195 447.716C343.195 452.483 346.177 454.897 352.06 454.897H354.859C356.076 454.897 356.381 455.019 356.421 455.059C356.218 455.262 355.934 455.485 354.494 455.485C351.492 455.485 347.982 455.343 344.473 455.202C341.004 455.06 337.556 454.917 334.675 454.917C334.026 454.917 332.545 454.978 330.517 455.039C326.176 455.201 319.259 455.465 312.625 455.465C310.861 455.465 310.516 455.242 310.475 455.181C313.051 454.877 315.749 454.694 317.291 454.492C326.967 453.234 330.72 445.728 334.29 436.803L381.189 320.953C382.995 316.572 384.111 314.34 385.125 314.34C385.957 314.34 386.91 315.781 388.512 319.493C390.541 324.158 397.844 342.192 406.323 363.126C416.486 388.199 428.312 417.41 434.824 432.888C441.883 449.582 447.583 452.95 452.228 454.066C455.474 454.715 458.456 454.857 460.403 454.857C461.255 454.857 461.499 454.938 461.56 454.958C460.89 455.485 455.92 455.485 454.298 455.485ZM380.479 349.718C379.668 349.718 378.593 350.184 378.005 352.436L360.864 398.078C360.519 399.336 360.843 400.066 361.168 400.451L361.574 400.999L362.912 401.263H398.006L399.304 400.37C399.71 399.802 399.811 399.072 399.568 398.321L382.731 352.314C382.508 351.381 382.082 349.718 380.479 349.718Z" fill="#A48E82"/>
<path d="M607.798 457.717C606.134 457.717 603.72 455.303 602.442 454.005C595.403 447.311 584.084 435.931 571.974 423.739C563.738 415.483 555.157 406.842 547.307 399.052C530.612 382.519 513.552 364.08 506.27 356.209L502.456 352.112H500.428L499.9 353.532L501.969 431.448C502.314 445.343 504.485 451.733 509.434 453.457C512.923 454.695 516.696 454.837 519.617 454.837C521.119 454.837 521.463 455.06 521.504 455.08C521.504 455.08 521.484 455.08 521.463 455.08C521.301 455.08 520.794 455.425 518.502 455.425C510.651 455.425 504.748 455.182 500.61 455.019C498.338 454.938 496.594 454.857 495.336 454.857C494.829 454.857 493.693 454.897 492.111 454.979C488.358 455.141 481.988 455.425 475.152 455.425C473.185 455.425 472.596 455.242 472.454 455.1C472.373 455.08 472.677 454.857 474.037 454.857C476.024 454.857 479.818 454.735 482.82 453.863C488.804 452.017 489.433 445.688 489.616 429.358L491.299 319.31C491.299 315.375 491.989 314.32 492.334 314.32C493.368 314.32 494.667 315.761 496.492 317.769L498.237 319.676C500.042 321.623 528.462 351.564 556.212 379.132C563.434 386.353 574.733 398.2 583.699 407.612C590.494 414.733 595.971 420.473 597.351 421.772L597.756 422.137H599.724L600.617 420.717L598.75 336.817C598.568 325.335 596.823 320.933 591.549 318.742C588.466 317.505 583.861 317.505 581.102 317.505C579.763 317.505 579.479 317.282 579.459 317.262C579.642 317.14 580.412 316.917 582.968 316.917C588.892 316.917 594.531 317.12 598.913 317.282C601.732 317.383 604.024 317.465 605.586 317.465C606.256 317.465 607.473 317.404 609.096 317.323C612.463 317.16 617.717 316.897 623.884 316.897C625.993 316.897 626.622 317.099 626.805 317.221C626.683 317.221 626.237 317.465 624.817 317.465C622.91 317.465 621.287 317.465 618.873 318.073C612.362 319.939 611.084 325.335 610.901 335.275L608.852 453.193C608.852 454.654 608.751 457.717 607.798 457.717Z" fill="#A48E82"/>
<path d="M729.577 455.486C722.133 455.486 714.871 455.283 709.17 455.121C705.418 455.019 702.314 454.938 700.245 454.938C698.379 454.938 695.133 455.039 691.421 455.161C686.573 455.323 680.954 455.506 676.714 455.506C674.909 455.506 674.442 455.161 674.381 455.1C674.483 455.08 674.909 454.918 675.963 454.918C678.337 454.918 680.629 454.654 683.002 454.127C687.749 453.173 688.946 448.041 689.514 442.625C690.447 434.713 690.447 419.865 690.447 402.683V324.645L661.175 325.437C650.262 325.802 645.17 326.735 641.925 331.461C640.241 333.997 639.044 336.472 638.557 338.46C638.253 339.657 638.03 339.657 637.847 339.657C637.726 339.657 637.563 339.352 637.563 338.054C637.563 335.316 641.032 318.621 641.458 316.896C641.925 314.827 642.27 314.462 642.371 314.401C642.635 314.401 643.203 314.665 643.811 314.929C645.13 315.517 647.158 316.389 650.262 316.653C655.881 317.221 663.082 317.586 669.066 317.586H743.067C749.092 317.586 753.291 317.018 756.07 316.653L758.301 316.207C759.579 315.943 760.594 315.72 760.999 315.72C761.02 315.821 761.101 316.734 761.101 318.256C761.101 320.102 760.979 323.956 760.837 328.013C760.695 332.557 760.533 337.364 760.533 339.941C760.391 341.239 760.188 341.543 760.127 341.604C759.904 341.442 759.701 341.016 759.579 339.109L759.397 337.019C759.072 332.841 755.603 325.741 735.988 325.295L711.016 324.706V402.744C711.016 419.926 711.016 434.774 711.949 442.888C712.477 447.879 713.633 453.295 720.429 454.208C723.066 454.573 727.265 454.958 730.145 454.958C731.504 454.958 731.829 455.222 731.829 455.242C731.829 455.242 731.809 455.242 731.788 455.242C731.586 455.161 731.018 455.486 729.577 455.486Z" fill="#A48E82"/>
<path d="M886.435 455.482C879.721 455.482 866.069 455.482 851.159 455.117C849.577 455.036 848.177 454.954 847.386 454.833C847.589 454.812 847.893 454.752 848.258 454.731C849.597 454.366 850.55 453.534 851.078 452.459C851.646 451.262 851.646 449.863 851.078 448.504L836.128 410.043C835.539 408.582 834.484 407.852 832.963 407.852H791.297C789.37 407.852 788.701 409.089 788.295 410.286L778.233 435.805C776.225 440.836 775.333 445.42 775.333 447.713C775.333 452.48 778.315 454.894 784.197 454.894H786.997C788.214 454.894 788.518 455.015 788.559 455.056C788.356 455.259 788.072 455.482 786.632 455.482C783.629 455.482 780.12 455.34 776.631 455.198C773.162 455.056 769.714 454.914 766.833 454.914C766.164 454.914 764.683 454.975 762.654 455.056C758.293 455.218 751.396 455.482 744.783 455.482C743.018 455.482 742.673 455.259 742.633 455.198C745.209 454.894 747.907 454.711 749.449 454.508C759.125 453.25 762.878 445.745 766.448 436.819L813.347 320.97C815.153 316.588 816.268 314.357 817.283 314.357C818.114 314.357 819.068 315.797 820.67 319.509C822.699 324.175 830.001 342.209 838.481 363.143C848.644 388.216 860.47 417.447 866.981 432.925C874.041 449.619 879.741 452.987 884.386 454.102C887.632 454.752 890.614 454.894 892.561 454.894C893.413 454.894 893.657 454.975 893.717 454.995C893.028 455.482 888.058 455.482 886.435 455.482ZM812.617 349.714C811.948 349.714 810.73 350.059 810.162 352.453L793.021 398.074C792.677 399.332 793.001 400.062 793.326 400.448L793.731 400.996L795.07 401.259H830.164L831.462 400.367C831.868 399.799 831.969 399.068 831.726 398.318L814.889 352.311C814.646 351.378 814.22 349.714 812.617 349.714Z" fill="#A48E82"/>
<path d="M1026.49 455.485C1016.61 455.485 1011.91 454.653 1007.16 452.097C999.615 448.06 992.778 439.825 982.027 425.037C978.903 420.736 975.577 415.989 972.574 411.729C968.294 405.644 964.907 400.836 963.446 399.153C962.148 397.591 960.484 397.367 959.044 397.367L942.816 397.002C940.97 397.002 939.895 398.077 939.895 399.883V402.5C939.895 419.803 939.895 434.733 940.848 442.664C941.376 447.736 942.491 453.253 949.327 454.166C952.188 454.552 956.366 454.917 958.659 454.917C959.49 455.079 959.146 455.505 957.158 455.505C949.997 455.505 941.518 455.262 935.797 455.099C932.856 455.018 930.645 454.957 929.691 454.957C928.231 454.957 925.411 455.039 922.044 455.16C917.216 455.323 911.313 455.525 906.891 455.525C905.085 455.525 904.619 455.181 904.558 455.12C904.659 455.099 905.085 454.937 906.14 454.937C908.514 454.937 910.806 454.673 913.179 454.146C918.251 453.132 919.062 447.107 919.691 442.705C920.624 434.753 920.624 419.904 920.624 402.702V369.82C920.624 341.279 920.624 336.146 920.259 330.122C919.873 323.569 918.311 319.715 911.11 318.194C909.386 317.768 905.937 317.606 903.544 317.606C902.063 317.606 901.759 317.382 901.738 317.362C901.799 317.281 902.286 317.038 904.497 317.038C910.562 317.038 917.317 317.24 922.551 317.403C925.878 317.504 928.576 317.585 930.097 317.585C933.363 317.585 938.678 317.443 943.871 317.301C948.8 317.159 953.628 317.038 956.448 317.038C967.442 317.038 980.019 317.971 990.04 324.827C994.908 328.134 1002.15 337.364 1002.15 349.271C1002.15 364.12 994.929 376.311 978.011 390.044L976.936 390.917L984.238 400.126C997.972 417.45 1008.82 431.142 1018.42 441.245C1028.95 452.138 1036.88 453.72 1039.88 454.308C1042.25 454.755 1044.04 454.937 1045.58 454.937C1046.39 455.241 1046.09 455.525 1044.28 455.525H1026.49V455.485ZM952.877 323.001C947.542 323.001 944.459 323.245 942.573 323.813C940.199 324.482 939.895 326.267 939.895 327.769V384.567C939.895 386.758 940.321 388.32 942.431 389.213C946.183 390.47 951.66 391.18 957.178 391.18C964.582 391.18 967.483 390.47 971.256 387.752C975.597 384.588 982.859 376.575 982.859 358.602C982.859 330.487 964.014 323.001 952.877 323.001Z" fill="#A48E82"/>
<path d="M1201.13 455.485C1194.42 455.485 1180.78 455.485 1165.85 455.12C1164.27 455.039 1162.87 454.958 1162.08 454.836C1162.28 454.816 1162.59 454.755 1162.95 454.735C1164.29 454.37 1165.25 453.558 1165.77 452.463C1166.34 451.266 1166.36 449.866 1165.79 448.507L1150.84 410.046C1150.25 408.586 1149.2 407.856 1147.68 407.856H1106.01C1104.09 407.856 1103.4 409.093 1103.01 410.29L1092.95 435.829C1090.94 440.839 1090.05 445.404 1090.05 447.736C1090.05 452.503 1093.03 454.917 1098.91 454.917H1101.71C1102.95 454.917 1103.23 455.039 1103.29 455.08C1103.09 455.283 1102.81 455.506 1101.35 455.506C1098.36 455.506 1094.83 455.364 1091.35 455.222C1087.88 455.08 1084.43 454.938 1081.53 454.938C1080.86 454.938 1079.4 454.999 1077.35 455.08C1073.01 455.242 1066.11 455.506 1059.48 455.506C1057.71 455.506 1057.37 455.283 1057.33 455.222C1059.9 454.917 1062.6 454.735 1064.14 454.532C1073.84 453.274 1077.57 445.769 1081.16 436.843L1128.06 320.994C1129.87 316.612 1130.98 314.381 1132 314.381C1132.83 314.381 1133.78 315.821 1135.39 319.533C1137.45 324.26 1144.86 342.557 1153.44 363.715C1163.54 388.666 1175.27 417.572 1181.74 432.948C1188.78 449.603 1194.25 452.97 1199.14 454.126C1202.39 454.775 1205.37 454.917 1207.32 454.917C1208.17 454.917 1208.41 454.999 1208.47 455.019C1207.7 455.485 1202.75 455.485 1201.13 455.485ZM1127.31 349.718C1126.64 349.718 1125.43 350.063 1124.84 352.456L1107.7 398.078C1107.37 399.356 1107.7 400.086 1108 400.472L1108.41 400.999L1109.74 401.263H1144.86L1146.14 400.35C1146.54 399.782 1146.64 399.031 1146.38 398.301L1129.54 352.314C1129.34 351.422 1128.93 349.718 1127.31 349.718Z" fill="#A48E82"/>
</svg>
