<svg width="270" height="52" viewBox="0 0 270 52" fill="none" xmlns="http://www.w3.org/2000/svg">
<path d="M76.304 0H74.5293V51.8639H76.304V0Z" fill="black"/>
<path d="M44.7659 39.3613V28.2304H33.2317V39.3613H28.2307V12.4211H33.2317V23.6327H44.7659V12.4211H49.7668V39.3613H44.7659ZM19.2776 18.2285C19.6809 18.9545 19.8421 19.9223 19.8421 21.0516V39.2806H24.6817V19.5192C24.6817 17.6638 24.2786 16.0507 23.4719 14.7602C22.262 12.905 20.2454 11.8564 17.5836 11.8564C14.196 11.8564 11.6149 13.4696 9.35648 15.6475L8.22725 16.7767V12.3404H0V16.2121H3.71033V39.2806H8.54989V19.4385L8.79186 19.2771C10.4857 17.9059 12.9861 16.2121 15.6478 16.2121C17.745 16.2121 18.7936 17.3414 19.2776 18.2285Z" fill="black"/>
<path d="M98 39.2645H101.457V12.0006H98V39.2645ZM109.182 12.0006H105.724C107.505 11.9842 109.271 12.3246 110.92 13.0023C112.57 13.6801 114.07 14.6816 115.335 15.949C116.599 17.2165 117.603 18.7248 118.288 20.3869C118.973 22.049 119.326 23.8318 119.326 25.6325C119.326 27.4333 118.973 29.2161 118.288 30.8782C117.603 32.5403 116.599 34.0486 115.335 35.3161C114.07 36.5835 112.57 37.585 110.92 38.2628C109.271 38.9405 107.505 39.2809 105.724 39.2645H109.182C112.735 39.2318 116.132 37.7811 118.633 35.2282C121.134 32.6752 122.538 29.2266 122.538 25.6325C122.538 22.0385 121.134 18.5899 118.633 16.0369C116.132 13.484 112.735 12.0333 109.182 12.0006ZM127.541 39.2419H130.565V17.4003H127.541V39.2419ZM164.497 38.2802C159.691 38.2802 156.132 34.2895 156.132 27.7457C156.132 21.9257 159.156 17.5148 163.636 17.5148C166.394 17.5148 168.826 19.2252 170.398 21.8951L171.881 20.5448C170.101 18.4753 167.105 17.0333 163.784 17.0333C157.585 16.9427 152.72 21.6527 152.808 28.4933C152.808 35.1232 157.198 39.5942 163.16 39.5942C167.08 39.5942 170.159 37.7036 172.177 34.3745L171.82 34.1695C170.014 37.0194 167.315 38.2802 164.497 38.2802ZM225.57 38.6993H223.848V28.1399H225.214C228.269 28.1399 230.463 28.4095 231.442 28.8603H231.501V26.9992H231.442C230.493 27.39 228.418 27.5996 225.214 27.5996H223.848V17.9395H225.48C228.223 17.9421 230.947 18.3982 233.544 19.2898H233.603L233.247 17.4003H220.816V39.2396H233.6L234.16 37.2301H234.101C231.413 38.2201 228.328 38.6993 225.57 38.6993ZM251.464 22.9202C251.464 19.2297 248.44 17.4003 242.713 17.4003H237.403V39.2396H240.427V29.37H242.414C243.245 29.37 243.512 29.5196 243.956 29.9998L252.737 39.9H252.915V36.0895L246.27 28.6202C249.446 27.5101 251.464 25.7996 251.464 22.9202ZM243.162 28.8897C242.362 28.8897 241.057 28.8297 240.434 28.7096V17.8795H242.599C246.425 17.8795 248.413 19.8595 248.413 23.1298C248.408 26.2799 246.298 28.8897 243.162 28.8897ZM268.074 17.4003C267.54 19.65 266.294 22.5294 264.306 26.0398L262.762 28.8037L256.417 17.4003H252.945L260.001 29.8798V39.2396H263.025V29.5196L264.84 26.3116C266.65 23.012 268.371 20.0419 269.942 17.4026L268.074 17.4003ZM186.18 17.0401C179.772 16.9495 174.671 21.7195 174.756 28.5295C174.756 35.2795 179.562 39.5998 185.79 39.5998C192.197 39.6893 197.299 34.9193 197.213 28.1093C197.213 21.3593 192.408 17.0401 186.18 17.0401ZM186.12 39.1195C181.404 39.1195 178.082 34.7098 178.082 28.1999C178.082 21.8101 181.167 17.5193 185.942 17.5193C190.599 17.5193 193.894 21.9596 193.894 28.44C193.892 34.8593 190.777 39.1195 186.12 39.1195ZM146.641 28.4718C145.899 27.962 144.92 27.4523 143.764 26.8859L142.28 26.195C139.403 24.8153 137.8 23.8853 137.654 21.3649C137.654 19.1754 139.344 17.5249 141.984 17.5249C144.268 17.5249 146.374 18.7551 147.887 20.316L148.362 18.635C146.937 17.7957 144.565 17.0492 142.314 17.0492C138.221 17.0401 135.489 19.4993 135.489 22.8001C135.489 24.9897 136.734 26.5801 138.247 27.5701C139.114 28.1112 140.015 28.5922 140.946 29.0098L142.429 29.6702C145.128 30.9593 147.056 32.0399 147.174 34.8593C147.174 36.0895 146.726 37.1101 145.81 37.9177C144.914 38.7276 143.764 39.1173 142.338 39.1173C141.123 39.1173 139.907 38.8477 138.631 38.2779C137.387 37.7085 136.409 36.9892 135.696 36.12L135.162 38.0095C135.903 38.3991 136.941 38.7899 138.276 39.1195C139.518 39.4323 140.793 39.5935 142.073 39.5998C146.255 39.5998 149.31 37.0194 149.31 33.2995C149.309 30.9899 148.153 29.4301 146.641 28.4695V28.4718ZM214.623 21.212C214.267 22.5623 213.615 24.4222 212.666 26.7625L209.314 35.1323L202.258 17.4026H198.965L207.953 39.7176H208.072L213.232 26.9675L213.47 26.4011C214.805 23.0709 216.11 19.9513 217.326 17.4015H215.275C215.2 18.6931 214.982 19.972 214.624 21.2143L214.623 21.212Z" fill="black"/>
</svg>
