<svg width="145" height="21" viewBox="0 0 145 21" fill="none" xmlns="http://www.w3.org/2000/svg">
<path d="M12.7759 20.5217H15.4239V0.000426336H12.7759V20.5217ZM21.34 0.000426336H18.692C20.0556 -0.0119283 21.4081 0.244347 22.6714 0.754453C23.9348 1.26456 25.0839 2.01839 26.0525 2.9724C27.0211 3.92642 27.79 5.06171 28.3147 6.31273C28.8394 7.56374 29.1095 8.90569 29.1095 10.2611C29.1095 11.6164 28.8394 12.9584 28.3147 14.2094C27.79 15.4604 27.0211 16.5957 26.0525 17.5497C25.0839 18.5037 23.9348 19.2576 22.6714 19.7677C21.4081 20.2778 20.0556 20.534 18.692 20.5217H21.34C24.0615 20.497 26.6631 19.4051 28.5788 17.4836C30.4945 15.562 31.5693 12.9663 31.5693 10.2611C31.5693 7.55586 30.4945 4.9601 28.5788 3.03854C26.6631 1.11698 24.0615 0.0250851 21.34 0.000426336ZM4.46658 4.88924C5.5817 5.33942 6.62905 5.77936 7.4834 6.18861V5.49715C6.84007 5.46731 6.19673 5.31725 5.08161 4.908L4.89548 4.83809L4.49232 4.67695V2.30245L4.89548 2.1396L5.07647 2.06969L7.47825 1.11051V0.00213158L0.000976562 3.02887V3.06894L4.27444 4.80825L4.46658 4.88924ZM4.11489 4.52603L1.54155 3.49012L4.11489 2.45677V4.52603ZM4.11489 14.0581V16.7771L4.49403 16.6671V14.996H6.81776C7.17975 15.4462 7.41821 16.1351 7.41821 16.8453C7.44823 18.524 5.89994 19.6836 3.79837 19.6631C1.61618 19.6631 0.195693 18.634 0.195693 17.0448C0.195693 16.0558 0.768691 15.2458 1.66421 14.7163L1.21131 14.2167C0.497632 14.8263 0.0352878 15.8366 0.0352878 16.9553C0.00526544 19.1132 1.58358 20.8124 3.86614 20.7826C6.19844 20.7826 7.59663 19.2232 7.59663 16.8947C7.61293 15.8745 7.29134 14.8772 6.68138 14.0564L4.11489 14.0581ZM35.4016 20.5046H37.7176V4.06478H35.4016V20.5046ZM7.48169 8.16409V7.14096H0.161382V8.16409H4.11318V11.722H0.161382V12.7451H7.48169V11.722H4.49232V8.16409H7.48169ZM63.7058 19.7808C60.0251 19.7808 57.299 16.7771 57.299 11.8516C57.299 7.47092 59.615 4.15089 63.0462 4.15089C65.1589 4.15089 67.0211 5.43832 68.2255 7.4479L69.3612 6.4316C67.9981 4.8739 65.7036 3.78853 63.1594 3.78853C58.4116 3.72033 54.6862 7.26544 54.7531 12.4143C54.7531 17.4046 58.1156 20.7698 62.6816 20.7698C65.6838 20.7698 68.0427 19.3468 69.5876 16.841L69.3148 16.6867C67.9312 18.8318 65.864 19.7808 63.7058 19.7808ZM110.481 20.0962H109.163V12.1483H110.209C112.549 12.1483 114.229 12.3512 114.979 12.6905H115.024V11.2897H114.979C114.252 11.5839 112.663 11.7416 110.209 11.7416H109.163V4.47062H110.413C112.513 4.47252 114.6 4.81582 116.589 5.48692H116.634L116.362 4.06478H106.84V20.5029H116.632L117.061 18.9904H117.015C114.957 19.7356 112.594 20.0962 110.481 20.0962ZM130.313 8.2195C130.313 5.44173 127.997 4.06478 123.612 4.06478H119.545V20.5029H121.861V13.0742H123.382C124.019 13.0742 124.223 13.1868 124.564 13.5483L131.289 21H131.425V18.1318L126.336 12.5098C128.769 11.6742 130.313 10.3868 130.313 8.2195ZM123.955 12.7127C123.342 12.7127 122.343 12.6675 121.866 12.5772V4.42543H123.524C126.454 4.42543 127.977 5.91578 127.977 8.37724C127.973 10.7483 126.357 12.7127 123.955 12.7127ZM143.035 4.06478C142.626 5.75804 141.672 7.92536 140.15 10.5676L138.967 12.6479L134.107 4.06478H131.448L136.852 13.4579V20.5029H139.168V13.1868L140.559 10.7722C141.945 8.28857 143.262 6.05304 144.466 4.06648L143.035 4.06478ZM80.3124 3.79365C75.4051 3.72544 71.4979 7.31575 71.5631 12.4416C71.5631 17.5222 75.2438 20.7741 80.0139 20.7741C84.9213 20.8414 88.8285 17.2511 88.7633 12.1253C88.7633 7.04462 85.0826 3.79365 80.3124 3.79365ZM80.267 20.4126C76.6549 20.4126 74.1107 17.0934 74.1107 12.1935C74.1107 7.38396 76.473 4.1543 80.1306 4.1543C83.6973 4.1543 86.2208 7.4965 86.2208 12.3742C86.2191 17.2059 83.8336 20.4126 80.267 20.4126ZM50.0302 12.3981C49.4615 12.0144 48.7118 11.6308 47.8266 11.2045L46.69 10.6844C44.4864 9.64591 43.2589 8.94592 43.1465 7.04888C43.1465 5.4008 44.4409 4.15856 46.4635 4.15856C48.2126 4.15856 49.8252 5.08449 50.9841 6.25937L51.3478 4.99411C50.2567 4.36234 48.4399 3.80047 46.7157 3.80047C43.5814 3.79365 41.4884 5.64465 41.4884 8.12913C41.4884 9.77721 42.4423 10.9743 43.6011 11.7194C44.2648 12.1267 44.9554 12.4888 45.6684 12.8031L46.8041 13.3002C48.8713 14.2704 50.3476 15.0838 50.4385 17.2059C50.4385 18.1318 50.0954 18.9 49.3937 19.5079C48.7075 20.1176 47.8266 20.4109 46.7346 20.4109C45.8039 20.4109 44.8724 20.2079 43.8953 19.7791C42.9426 19.3505 42.1932 18.8091 41.6471 18.1549L41.2379 19.577C41.8058 19.8703 42.601 20.1645 43.6234 20.4126C44.5747 20.6479 45.551 20.7693 46.5313 20.7741C49.7343 20.7741 52.0743 18.8318 52.0743 16.0319C52.0734 14.2934 51.1882 13.1194 50.0302 12.3964V12.3981ZM102.098 6.93378C101.825 7.95008 101.326 9.35005 100.598 11.1115L98.0308 17.4114L92.6268 4.06648H90.1049L96.9886 20.8627H97.0795L101.032 11.2658L101.214 10.8395C102.236 8.3329 103.236 5.98484 104.167 4.06563H102.597C102.539 5.03779 102.372 6.00045 102.098 6.93549L102.098 6.93378Z" fill="#010101"/>
</svg>
