<svg version="1.1" id="Layer_1" xmlns="http://www.w3.org/2000/svg" xmlns:xlink="http://www.w3.org/1999/xlink" x="0px" y="0px"
	 width="100%" viewBox="0 0 644 181" enable-background="new 0 0 644 181" xml:space="preserve">
<path fill="#FCFDFD" opacity="1.000000" stroke="none" 
	d="
M498.000000,182.000000 
	C332.000000,182.000000 166.500000,182.000000 1.000000,182.000000 
	C1.000000,121.666664 1.000000,61.333332 1.000000,1.000000 
	C215.666672,1.000000 430.333344,1.000000 645.000000,1.000000 
	C645.000000,61.333332 645.000000,121.666664 645.000000,182.000000 
	C596.166687,182.000000 547.333313,182.000000 498.000000,182.000000 
M283.174255,97.499947 
	C283.174255,123.621521 283.174255,149.743088 283.174255,176.401672 
	C285.639374,176.401672 287.598175,176.401672 289.556976,176.401672 
	C371.722015,176.401672 453.887024,176.401749 536.052063,176.401627 
	C560.051575,176.401581 584.051941,176.523361 608.050415,176.363281 
	C628.602722,176.226196 641.973572,162.568710 641.980103,142.073547 
	C641.990784,108.574211 641.986389,75.074883 641.981689,41.575546 
	C641.978638,20.088337 628.706970,6.629363 607.198792,6.618962 
	C510.867371,6.572377 414.535980,6.588985 318.204590,6.642244 
	C314.737701,6.644161 311.159149,6.829708 307.823639,7.679432 
	C292.501770,11.582668 283.298584,24.066111 283.199310,41.001186 
	C283.090851,59.500183 283.174377,78.000305 283.174255,97.499947 
M203.487671,104.232018 
	C207.908813,104.232018 212.329971,104.232018 217.099701,104.232018 
	C217.099701,121.943222 217.099701,138.867554 217.099701,155.879639 
	C225.069458,155.879639 232.655197,155.879639 240.403519,155.879639 
	C240.403519,114.123810 240.403519,72.604362 240.403519,31.038609 
	C232.470734,31.038609 224.887405,31.038609 216.769806,31.038609 
	C216.769806,48.348354 216.769806,65.394897 216.769806,82.549042 
	C198.308334,82.549042 180.386322,82.549042 161.915970,82.549042 
	C161.915970,65.289986 161.915970,48.238056 161.915970,31.073322 
	C153.645203,31.073322 145.926849,31.073322 138.250092,31.073322 
	C138.250092,72.902748 138.250092,114.425789 138.250092,155.879013 
	C146.223434,155.879013 153.828934,155.879013 162.016251,155.879013 
	C162.016251,138.617416 162.016251,121.583351 162.016251,104.232048 
	C175.896881,104.232048 189.194611,104.232048 203.487671,104.232018 
M121.228149,130.500061 
	C121.166489,106.845764 121.419830,83.185081 120.940536,59.539246 
	C120.576569,41.583176 108.621971,29.951508 90.717651,28.757399 
	C77.052238,27.846001 65.206627,32.283333 54.717728,40.735302 
	C50.889278,43.820267 47.295986,47.197063 42.933319,51.021069 
	C42.933319,43.886292 42.933319,37.509209 42.933319,31.101654 
	C29.384386,31.101654 16.340895,31.101654 3.296544,31.101654 
	C3.296544,37.180046 3.296544,42.924133 3.296544,49.072350 
	C9.153242,49.072350 14.743802,49.072350 20.773800,49.072350 
	C20.773800,84.871872 20.773800,120.263840 20.773800,155.755753 
	C28.761726,155.755753 36.288200,155.755753 43.995373,155.755753 
	C43.995373,153.914810 43.995369,152.429321 43.995369,150.943832 
	C43.995377,123.290176 43.967503,95.636429 44.059425,67.983078 
	C44.065422,66.179817 44.404015,63.678875 45.583347,62.691837 
	C53.171646,56.340809 61.584427,51.328854 71.421158,49.287666 
	C87.297066,45.993317 97.587349,54.206490 97.951973,70.323364 
	C97.985878,71.821968 97.970009,73.321777 97.970062,74.821030 
	C97.970970,100.142448 97.970726,125.463875 97.970749,150.785294 
	C97.970749,152.526840 97.970757,154.268387 97.970757,155.777695 
	C106.167259,155.777695 113.593674,155.777695 121.228180,155.777695 
	C121.228180,147.463135 121.228180,139.481598 121.228149,130.500061 
z"/>
<path fill="#023973" opacity="1.000000" stroke="none" 
	d="
M283.174255,96.999939 
	C283.174377,78.000305 283.090851,59.500183 283.199310,41.001186 
	C283.298584,24.066111 292.501770,11.582668 307.823639,7.679432 
	C311.159149,6.829708 314.737701,6.644161 318.204590,6.642244 
	C414.535980,6.588985 510.867371,6.572377 607.198792,6.618962 
	C628.706970,6.629363 641.978638,20.088337 641.981689,41.575546 
	C641.986389,75.074883 641.990784,108.574211 641.980103,142.073547 
	C641.973572,162.568710 628.602722,176.226196 608.050415,176.363281 
	C584.051941,176.523361 560.051575,176.401581 536.052063,176.401627 
	C453.887024,176.401749 371.722015,176.401672 289.556976,176.401672 
	C287.598175,176.401672 285.639374,176.401672 283.174255,176.401672 
	C283.174255,149.743088 283.174255,123.621521 283.174255,96.999939 
M496.500000,161.925415 
	C533.495850,161.925308 570.491699,161.936646 607.487549,161.918808 
	C620.152710,161.912689 627.297119,154.837250 627.315552,142.128433 
	C627.364441,108.465546 627.357849,74.802505 627.319702,41.139584 
	C627.304932,28.094303 620.249634,21.080553 607.254395,21.079403 
	C510.765015,21.070858 414.275635,21.069427 317.786255,21.080992 
	C305.190460,21.082500 297.976654,28.308676 297.973145,40.872272 
	C297.962433,79.534683 297.966339,118.197098 297.978699,156.859512 
	C297.979187,158.461319 298.121887,160.063110 298.210785,161.925415 
	C364.233215,161.925415 429.866608,161.925415 496.500000,161.925415 
z"/>
<path fill="#023973" opacity="1.000000" stroke="none" 
	d="
M202.990021,104.232033 
	C189.194611,104.232048 175.896881,104.232048 162.016251,104.232048 
	C162.016251,121.583351 162.016251,138.617416 162.016251,155.879013 
	C153.828934,155.879013 146.223434,155.879013 138.250092,155.879013 
	C138.250092,114.425789 138.250092,72.902748 138.250092,31.073322 
	C145.926849,31.073322 153.645203,31.073322 161.915970,31.073322 
	C161.915970,48.238056 161.915970,65.289986 161.915970,82.549042 
	C180.386322,82.549042 198.308334,82.549042 216.769806,82.549042 
	C216.769806,65.394897 216.769806,48.348354 216.769806,31.038609 
	C224.887405,31.038609 232.470734,31.038609 240.403519,31.038609 
	C240.403519,72.604362 240.403519,114.123810 240.403519,155.879639 
	C232.655197,155.879639 225.069458,155.879639 217.099701,155.879639 
	C217.099701,138.867554 217.099701,121.943222 217.099701,104.232018 
	C212.329971,104.232018 207.908813,104.232018 202.990021,104.232033 
z"/>
<path fill="#003873" opacity="1.000000" stroke="none" 
	d="
M121.228165,131.000061 
	C121.228180,139.481598 121.228180,147.463135 121.228180,155.777695 
	C113.593674,155.777695 106.167259,155.777695 97.970757,155.777695 
	C97.970757,154.268387 97.970749,152.526840 97.970749,150.785294 
	C97.970726,125.463875 97.970970,100.142448 97.970062,74.821030 
	C97.970009,73.321777 97.985878,71.821968 97.951973,70.323364 
	C97.587349,54.206490 87.297066,45.993317 71.421158,49.287666 
	C61.584427,51.328854 53.171646,56.340809 45.583347,62.691837 
	C44.404015,63.678875 44.065422,66.179817 44.059425,67.983078 
	C43.967503,95.636429 43.995377,123.290176 43.995369,150.943832 
	C43.995369,152.429321 43.995373,153.914810 43.995373,155.755753 
	C36.288200,155.755753 28.761726,155.755753 20.773800,155.755753 
	C20.773800,120.263840 20.773800,84.871872 20.773800,49.072350 
	C14.743802,49.072350 9.153242,49.072350 3.296544,49.072350 
	C3.296544,42.924133 3.296544,37.180046 3.296544,31.101654 
	C16.340895,31.101654 29.384386,31.101654 42.933319,31.101654 
	C42.933319,37.509209 42.933319,43.886292 42.933319,51.021069 
	C47.295986,47.197063 50.889278,43.820267 54.717728,40.735302 
	C65.206627,32.283333 77.052238,27.846001 90.717651,28.757399 
	C108.621971,29.951508 120.576569,41.583176 120.940536,59.539246 
	C121.419830,83.185081 121.166489,106.845764 121.228165,131.000061 
z"/>
<path fill="#FEFEFE" opacity="1.000000" stroke="none" 
	d="
M496.000000,161.925415 
	C429.866608,161.925415 364.233215,161.925415 298.210785,161.925415 
	C298.121887,160.063110 297.979187,158.461319 297.978699,156.859512 
	C297.966339,118.197098 297.962433,79.534683 297.973145,40.872272 
	C297.976654,28.308676 305.190460,21.082500 317.786255,21.080992 
	C414.275635,21.069427 510.765015,21.070858 607.254395,21.079403 
	C620.249634,21.080553 627.304932,28.094303 627.319702,41.139584 
	C627.357849,74.802505 627.364441,108.465546 627.315552,142.128433 
	C627.297119,154.837250 620.152710,161.912689 607.487549,161.918808 
	C570.491699,161.936646 533.495850,161.925308 496.000000,161.925415 
M574.028076,65.480560 
	C565.800720,56.881386 555.656616,53.312069 543.877014,53.793350 
	C523.179443,54.638992 507.852661,70.633255 507.888458,91.464523 
	C507.924164,112.265442 523.365967,128.442398 544.122192,128.886490 
	C559.916016,129.224411 572.538696,122.832649 579.653137,108.448280 
	C587.041809,93.509254 585.016418,79.088722 574.028076,65.480560 
M482.039215,75.788345 
	C480.931915,65.316620 475.030212,57.756115 464.577271,56.227718 
	C455.101013,54.842125 445.355255,55.262962 435.725616,54.979904 
	C431.475128,54.854961 427.217957,54.958839 423.221405,54.958839 
	C423.221405,79.610420 423.221405,103.519585 423.221405,127.445099 
	C427.482971,127.445099 431.390076,127.445099 435.931335,127.445099 
	C435.931335,118.936455 435.931335,110.723801 435.931335,102.244392 
	C439.711945,102.244392 442.881989,102.499580 445.993011,102.180054 
	C449.917114,101.777008 452.405487,103.169044 454.551025,106.506615 
	C458.594086,112.795921 463.022949,118.842743 467.441833,124.880257 
	C468.327148,126.089844 469.824554,127.512688 471.141418,127.622963 
	C475.336487,127.974251 479.579498,127.753120 484.699158,127.753120 
	C477.833160,118.078705 471.603333,109.300674 465.215393,100.299820 
	C476.322144,96.239143 482.769073,88.956635 482.039215,75.788345 
M379.028687,56.155148 
	C366.156738,55.582474 353.284760,55.009800 340.396118,54.436382 
	C340.396118,79.495552 340.396118,103.392624 340.396118,127.389679 
	C344.753906,127.389679 348.793060,127.389679 353.040497,127.389679 
	C353.040497,123.360191 353.040527,119.701683 353.040527,116.043182 
	C353.040527,112.252281 353.040497,108.461372 353.040497,104.000565 
	C359.771332,104.000565 366.075226,104.322472 372.334747,103.932518 
	C384.771729,103.157730 394.498901,94.850822 396.058502,84.160049 
	C398.061584,70.429070 392.689667,61.273888 379.028687,56.155148 
z"/>
<path fill="#033B75" opacity="1.000000" stroke="none" 
	d="
M574.275757,65.739609 
	C585.016418,79.088722 587.041809,93.509254 579.653137,108.448280 
	C572.538696,122.832649 559.916016,129.224411 544.122192,128.886490 
	C523.365967,128.442398 507.924164,112.265442 507.888458,91.464523 
	C507.852661,70.633255 523.179443,54.638992 543.877014,53.793350 
	C555.656616,53.312069 565.800720,56.881386 574.275757,65.739609 
M540.174438,66.077103 
	C528.700317,69.245880 522.868835,77.157089 521.375549,88.615532 
	C519.648865,101.865219 528.777832,114.205727 542.026306,116.656937 
	C554.464050,118.958153 566.864014,110.770767 569.554077,97.747406 
	C573.629822,78.015564 559.133545,62.794193 540.174438,66.077103 
z"/>
<path fill="#043B75" opacity="1.000000" stroke="none" 
	d="
M482.054443,76.236549 
	C482.769073,88.956635 476.322144,96.239143 465.215393,100.299820 
	C471.603333,109.300674 477.833160,118.078705 484.699158,127.753120 
	C479.579498,127.753120 475.336487,127.974251 471.141418,127.622963 
	C469.824554,127.512688 468.327148,126.089844 467.441833,124.880257 
	C463.022949,118.842743 458.594086,112.795921 454.551025,106.506615 
	C452.405487,103.169044 449.917114,101.777008 445.993011,102.180054 
	C442.881989,102.499580 439.711945,102.244392 435.931335,102.244392 
	C435.931335,110.723801 435.931335,118.936455 435.931335,127.445099 
	C431.390076,127.445099 427.482971,127.445099 423.221405,127.445099 
	C423.221405,103.519585 423.221405,79.610420 423.221405,54.958839 
	C427.217957,54.958839 431.475128,54.854961 435.725616,54.979904 
	C445.355255,55.262962 455.101013,54.842125 464.577271,56.227718 
	C475.030212,57.756115 480.931915,65.316620 482.054443,76.236549 
M460.156036,90.034004 
	C466.933380,87.231827 469.277679,84.009499 469.016083,77.855507 
	C468.795166,72.658752 465.971802,68.201790 460.521698,67.664558 
	C452.392242,66.863213 444.125275,67.456627 436.134918,67.456627 
	C436.134918,75.290298 436.134918,83.017311 436.134918,91.311783 
	C444.133392,90.927818 451.736755,90.562828 460.156036,90.034004 
z"/>
<path fill="#033C75" opacity="1.000000" stroke="none" 
	d="
M379.409973,56.295776 
	C392.689667,61.273888 398.061584,70.429070 396.058502,84.160049 
	C394.498901,94.850822 384.771729,103.157730 372.334747,103.932518 
	C366.075226,104.322472 359.771332,104.000565 353.040497,104.000565 
	C353.040497,108.461372 353.040527,112.252281 353.040527,116.043182 
	C353.040527,119.701683 353.040497,123.360191 353.040497,127.389679 
	C348.793060,127.389679 344.753906,127.389679 340.396118,127.389679 
	C340.396118,103.392624 340.396118,79.495552 340.396118,54.436382 
	C353.284760,55.009800 366.156738,55.582474 379.409973,56.295776 
M353.034058,78.508934 
	C353.034058,83.111061 353.034058,87.713188 353.034058,92.753296 
	C358.324829,92.753296 363.105347,92.823425 367.881958,92.717422 
	C369.691742,92.677254 371.524414,92.365425 373.291687,91.945892 
	C379.841461,90.391060 383.576477,85.540443 383.360107,79.029121 
	C383.142517,72.480728 379.093842,67.683708 372.301147,67.130730 
	C366.076172,66.623978 359.777405,67.023148 353.034058,67.023148 
	C353.034058,70.620049 353.034058,74.067986 353.034058,78.508934 
z"/>
<path fill="#FDFDFE" opacity="1.000000" stroke="none" 
	d="
M540.610596,66.032089 
	C559.133545,62.794193 573.629822,78.015564 569.554077,97.747406 
	C566.864014,110.770767 554.464050,118.958153 542.026306,116.656937 
	C528.777832,114.205727 519.648865,101.865219 521.375549,88.615532 
	C522.868835,77.157089 528.700317,69.245880 540.610596,66.032089 
z"/>
<path fill="#FDFEFE" opacity="1.000000" stroke="none" 
	d="
M459.748077,90.115921 
	C451.736755,90.562828 444.133392,90.927818 436.134918,91.311783 
	C436.134918,83.017311 436.134918,75.290298 436.134918,67.456627 
	C444.125275,67.456627 452.392242,66.863213 460.521698,67.664558 
	C465.971802,68.201790 468.795166,72.658752 469.016083,77.855507 
	C469.277679,84.009499 466.933380,87.231827 459.748077,90.115921 
z"/>
<path fill="#FBFCFD" opacity="1.000000" stroke="none" 
	d="
M353.034058,78.012436 
	C353.034058,74.067986 353.034058,70.620049 353.034058,67.023148 
	C359.777405,67.023148 366.076172,66.623978 372.301147,67.130730 
	C379.093842,67.683708 383.142517,72.480728 383.360107,79.029121 
	C383.576477,85.540443 379.841461,90.391060 373.291687,91.945892 
	C371.524414,92.365425 369.691742,92.677254 367.881958,92.717422 
	C363.105347,92.823425 358.324829,92.753296 353.034058,92.753296 
	C353.034058,87.713188 353.034058,83.111061 353.034058,78.012436 
z"/>
</svg>