<!-- Generated by IcoMoon.io -->
<svg version="1.1" xmlns="http://www.w3.org/2000/svg" width="36" height="36" viewBox="0 0 36 36">
<title>people</title>
<path class="fill-primary" fill="#009fdf" d="M7.497 16.858c0.549-0.005 1.058-0.171 1.482-0.456l-0.009 0.006c0.429-0.287 0.764-0.686 0.963-1.156l0.007-0.017c0.124-0.29 0.197-0.628 0.197-0.982 0-0.185-0.020-0.364-0.057-0.537l0.003 0.017c-0.113-0.526-0.372-0.979-0.733-1.328l-0.001-0.001c-0.364-0.352-0.828-0.603-1.346-0.704l-0.017-0.003c-0.153-0.031-0.33-0.048-0.511-0.048-0.369 0-0.722 0.074-1.042 0.207l0.018-0.007c-0.492 0.204-0.897 0.534-1.185 0.951l-0.006 0.009c-0.279 0.405-0.447 0.905-0.447 1.445v0c0.004 0.693 0.289 1.357 0.792 1.845s1.184 0.761 1.892 0.759zM7.497 12.667c0.319 0.004 0.632 0.099 0.896 0.275s0.471 0.424 0.591 0.714c0.074 0.176 0.117 0.381 0.117 0.596 0 0.442-0.183 0.842-0.477 1.128v0c-0.227 0.221-0.516 0.37-0.831 0.431-0.094 0.019-0.201 0.029-0.311 0.029-0.225 0-0.44-0.045-0.635-0.126l0.011 0.004c-0.3-0.123-0.547-0.324-0.723-0.577l-0.004-0.006c-0.171-0.246-0.272-0.551-0.273-0.88v0c0.001-0.443 0.186-0.843 0.482-1.127l0.001-0.001c0.152-0.148 0.333-0.265 0.531-0.345 0.183-0.075 0.395-0.118 0.617-0.118 0.003 0 0.006 0 0.009 0v0z"></path>
<path class="fill-primary" fill="#009fdf" d="M10.069 17.502c1.779 0.555 2.755 1.783 2.886 3.675 0 0.007 0.001 0.015 0.001 0.024 0 0.131-0.049 0.25-0.132 0.339v0c-0.097 0.107-0.236 0.174-0.391 0.174-0.128 0-0.245-0.045-0.337-0.121l0.001 0.001c-0.101-0.082-0.17-0.203-0.185-0.338v-0.002c-0.101-1.428-0.705-3.063-4.416-3.063s-4.32 1.647-4.43 3.081c-0.011 0.134-0.073 0.251-0.165 0.334v0c-0.093 0.083-0.217 0.135-0.353 0.135-0.075 0-0.146-0.015-0.21-0.044l0.004 0.001c-0.131-0.057-0.231-0.161-0.283-0.291l-0.001-0.004c-0.021-0.053-0.032-0.115-0.032-0.179 0-0.009 0-0.018 0.001-0.027v0.001c0.144-1.881 1.118-3.137 2.886-3.677l1.133-0.273c0.434-0.062 0.934-0.097 1.444-0.097s1.010 0.035 1.5 0.103l-0.057-0.007 1.139 0.254z"></path>
<path class="fill-primary" fill="#009fdf" d="M28.518 16.858c0.549-0.005 1.058-0.171 1.482-0.456l-0.009 0.006c0.429-0.287 0.764-0.686 0.963-1.156l0.007-0.017c0.124-0.29 0.197-0.628 0.197-0.982 0-0.185-0.020-0.364-0.057-0.537l0.003 0.017c-0.113-0.526-0.372-0.979-0.733-1.328l-0.001-0.001c-0.364-0.352-0.828-0.603-1.346-0.704l-0.017-0.003c-0.153-0.031-0.33-0.048-0.511-0.048-0.369 0-0.722 0.074-1.042 0.207l0.018-0.007c-0.492 0.204-0.897 0.534-1.185 0.951l-0.006 0.009c-0.279 0.405-0.447 0.905-0.447 1.445v0c0.004 0.693 0.289 1.357 0.792 1.845s1.184 0.761 1.892 0.759zM28.518 12.667c0.319 0.004 0.632 0.099 0.896 0.275s0.471 0.424 0.591 0.714c0.074 0.176 0.117 0.381 0.117 0.596 0 0.442-0.183 0.842-0.477 1.128v0c-0.227 0.221-0.516 0.37-0.831 0.431-0.094 0.019-0.201 0.029-0.311 0.029-0.225 0-0.44-0.045-0.635-0.126l0.011 0.004c-0.3-0.123-0.547-0.324-0.723-0.577l-0.004-0.006c-0.171-0.246-0.272-0.551-0.273-0.88v0c0.001-0.443 0.186-0.843 0.482-1.127l0.001-0.001c0.152-0.148 0.333-0.265 0.531-0.345 0.183-0.075 0.395-0.118 0.617-0.118 0.003 0 0.006 0 0.009 0v0z"></path>
<path class="fill-primary" fill="#009fdf" d="M31.090 17.502c1.779 0.555 2.755 1.783 2.886 3.675 0 0.007 0.001 0.015 0.001 0.024 0 0.131-0.049 0.25-0.132 0.339v0c-0.097 0.107-0.236 0.174-0.391 0.174-0.128 0-0.245-0.045-0.337-0.121l0.001 0.001c-0.101-0.082-0.17-0.203-0.185-0.338v-0.002c-0.101-1.428-0.705-3.063-4.416-3.063s-4.32 1.647-4.43 3.081c-0.011 0.134-0.073 0.251-0.165 0.334v0c-0.093 0.083-0.217 0.135-0.353 0.135-0.075 0-0.146-0.015-0.21-0.044l0.004 0.001c-0.131-0.057-0.231-0.161-0.283-0.291l-0.001-0.004c-0.021-0.053-0.032-0.115-0.032-0.179 0-0.009 0-0.018 0.001-0.027v0.001c0.144-1.881 1.118-3.137 2.886-3.677l1.133-0.273c0.434-0.062 0.934-0.097 1.444-0.097s1.010 0.035 1.5 0.103l-0.057-0.007 1.139 0.254z"></path>
<path class="fill-secondary" fill="#003a70" d="M18.008 18.23c0.747-0.008 1.436-0.243 2.005-0.64l-0.011 0.008c0.585-0.409 1.038-0.971 1.305-1.628l0.009-0.025c0.168-0.409 0.265-0.884 0.265-1.381 0-0.26-0.027-0.513-0.077-0.758l0.004 0.024c-0.15-0.736-0.501-1.373-0.994-1.87v0c-0.488-0.494-1.117-0.846-1.823-0.991l-0.023-0.004c-0.208-0.044-0.447-0.068-0.692-0.068-0.5 0-0.977 0.103-1.408 0.291l0.023-0.009c-0.671 0.291-1.219 0.755-1.604 1.338l-0.009 0.013c-0.38 0.573-0.605 1.276-0.605 2.032 0 0.001 0 0.001 0 0.002v0c0.005 1.013 0.414 1.93 1.073 2.598v0c0.652 0.66 1.557 1.070 2.558 1.070 0.001 0 0.003 0 0.004 0v0zM18.008 12.327c0.455 0.005 0.875 0.149 1.221 0.391l-0.007-0.005c0.358 0.249 0.636 0.599 0.799 1.007s0.205 0.857 0.117 1.289c-0.092 0.448-0.306 0.837-0.605 1.14v0c-0.308 0.311-0.698 0.521-1.125 0.606-0.128 0.027-0.274 0.042-0.423 0.042-0.304 0-0.593-0.063-0.855-0.176l0.014 0.006c-0.409-0.176-0.744-0.459-0.979-0.814l-0.005-0.009c-0.231-0.349-0.369-0.778-0.37-1.238v0c0-0.296 0.059-0.587 0.171-0.86s0.276-0.52 0.482-0.728c0.395-0.403 0.945-0.653 1.554-0.653 0.004 0 0.008 0 0.011 0h-0.001z"></path>
<path class="fill-secondary" fill="#003a70" d="M21.489 19.136c2.409 0.782 3.728 2.509 3.907 5.173 0.001 0.010 0.001 0.023 0.001 0.035 0 0.183-0.067 0.35-0.178 0.477l0.001-0.001c-0.129 0.149-0.318 0.243-0.53 0.243-0.174 0-0.333-0.063-0.456-0.169l0.001 0.001c-0.138-0.118-0.23-0.286-0.249-0.477v-0.003c-0.138-2.009-0.955-4.311-5.979-4.311s-5.847 2.32-5.995 4.339c-0.014 0.187-0.098 0.351-0.224 0.471v0c-0.125 0.118-0.294 0.191-0.479 0.191v0c-0.203-0.003-0.386-0.090-0.513-0.229v-0.001c-0.121-0.13-0.195-0.305-0.195-0.497 0-0.013 0-0.027 0.001-0.040v0.002c0.195-2.651 1.515-4.418 3.908-5.178l1.532-0.385c0.587-0.087 1.265-0.136 1.953-0.136s1.367 0.049 2.029 0.145l-0.076-0.009 1.54 0.358z"></path>
</svg>
