<svg id="Layer_1" data-name="Layer 1" xmlns="http://www.w3.org/2000/svg" viewBox="0 0 283.46 283.46"><rect x="43.5" y="82.71" width="15.67" height="122.2" fill="#311e5b"/><path d="M94.19,82.71H78.52a61.1,61.1,0,0,1,0,122.2H94.19a61.1,61.1,0,0,0,0-122.2" fill="#311e5b"/><path d="M231,145.14a121.83,121.83,0,0,0-16.67-8.93L209,133.8a10.69,10.69,0,0,1-4.12-1.93c-14.81-6.84-24.12-12.09-24.79-26.14,0-12.63,9.6-22.23,24.93-22.23,1,0,2.52.17,4.55.34v.08a12.8,12.8,0,0,1,3.37.46v0q13.65,2.79,25.27,14.15l2.35-8.76a71.61,71.61,0,0,0-25-8.26L217,65.82h-8.16l-1.37,15h-1.12c-23.07,0-38.9,13.81-38.9,32.33,0,12.63,7.07,21.06,15.33,26.44a146.78,146.78,0,0,0,15.83,8.26l4.72,2.11a10.86,10.86,0,0,1,3.35,1.54v-.12l.34.17c14.82,7.07,25.77,13,26.44,28.63,0,14.15-12,24.59-28.29,24.59-.92,0-1.63,0-2.22,0-.34,0-.68.05-1,.05a12.63,12.63,0,0,1-4.22-.7c-11.65-2-23.17-8.46-29.57-17.16L165.29,197c7,4.43,18.81,8.67,30.69,9.87l-1.42,15.56h8.16l1.37-15h.44c23.24,0,41.43-13.47,41.43-35,0-13.3-6.4-21.89-15-27.28" fill="#311e5b"/></svg>