<svg width="116" height="64" viewBox="0 0 116 64" fill="none" xmlns="http://www.w3.org/2000/svg">
<g clip-path="url(#clip0)">
<path d="M70.8301 20.8564C64.4035 20.8564 59.7607 27.7858 59.7607 35.7602C59.7607 43.9619 64.7237 50.6186 70.8301 50.6186C76.9595 50.6186 81.8995 43.9619 81.8995 35.7602C81.8767 27.5132 76.9595 20.8564 70.8301 20.8564ZM74.924 48.2104C73.8033 49.3691 72.454 49.6871 70.8301 49.6871C69.1835 49.6871 67.857 49.3691 66.7592 48.2104C65.1125 46.3701 64.1977 43.4393 64.1977 35.7602C64.1977 29.0808 65.0896 25.1049 66.7592 23.2647C67.857 22.1742 69.1835 21.8334 70.8301 21.8334C72.454 21.8334 73.8033 22.1969 74.924 23.2647C76.5707 25.1049 77.4855 29.0808 77.4855 35.7602C77.4855 43.4621 76.5936 46.3701 74.924 48.2104Z" fill="#AA7138"/>
<path d="M101.98 40.963C101.98 45.0525 100.058 48.9829 94.9126 48.9829H91.7564C91.6192 48.9829 91.5277 48.9602 91.5277 48.8238V22.6513C91.5277 22.4923 91.5963 22.4923 91.7564 22.4923H94.7296C94.7982 22.4923 94.7982 21.5381 94.7296 21.5381H84.2091C84.1634 21.5381 84.1634 22.4923 84.2091 22.4923H87.2509C87.3195 22.4923 87.3881 22.4923 87.3881 22.6513V48.8238C87.3881 48.9602 87.3195 48.9829 87.2509 48.9829H84.2091C84.1634 48.9829 84.1634 49.9371 84.2091 49.9371H102.689C102.757 49.9371 102.803 49.9144 102.803 49.8235V40.963C102.757 40.8721 101.98 40.8721 101.98 40.963Z" fill="#AA7138"/>
<path d="M112.889 48.9829C112.775 48.9829 112.706 48.9602 112.706 48.8238V22.6513C112.706 22.4923 112.798 22.4923 112.889 22.4923H115.954C116.023 22.4923 116.023 21.5381 115.954 21.5381H105.411C105.388 21.5381 105.388 22.4923 105.411 22.4923H108.384C108.498 22.4923 108.613 22.4923 108.613 22.6513V48.8238C108.613 48.9602 108.498 48.9829 108.384 48.9829H105.411C105.388 48.9829 105.388 49.9371 105.411 49.9371H115.954C116.023 49.9371 116.023 48.9829 115.954 48.9829H112.889Z" fill="#AA7138"/>
<path d="M20.1944 21.6517V30.5576C20.1944 30.6258 19.4397 30.6258 19.4397 30.5576C19.4397 25.9002 17.3356 22.4923 12.4184 22.4923H12.2583C12.0982 22.4923 12.0296 22.4923 12.0296 22.6513V48.8238C12.0296 48.9602 12.0982 48.9829 12.2583 48.9829H15.2315C15.3001 48.9829 15.3001 49.9371 15.2315 49.9371H4.77956C4.71095 49.9371 4.71095 48.9829 4.77956 48.9829H7.75275C7.8671 48.9829 7.95858 48.9602 7.95858 48.8238V22.6513C7.95858 22.4923 7.88997 22.4923 7.75275 22.4923H7.61552C2.65259 22.4923 0.800063 25.9002 0.800063 30.5349C0.800063 30.603 0.0224609 30.603 0.0224609 30.5349V21.6517C0.0224609 21.6062 0.0453316 21.5381 0.136814 21.5381H20.1258C20.1944 21.5381 20.1944 21.6062 20.1944 21.6517Z" fill="#AA7138"/>
<path d="M29.4343 22.4923H32.4761C32.5447 22.4923 32.5447 21.5381 32.4761 21.5381H21.9556C21.9328 21.5381 21.9328 22.4923 21.9556 22.4923H24.9288C25.0432 22.4923 25.1575 22.4923 25.1575 22.6513V48.8238C25.1575 48.9602 25.0432 48.9829 24.9288 48.9829H21.9556C21.9328 48.9829 21.9328 49.9371 21.9556 49.9371H32.4761C32.5447 49.9371 32.5447 48.9829 32.4761 48.9829H29.4343C29.32 48.9829 29.2285 48.9602 29.2285 48.8238V22.6513C29.2514 22.4923 29.32 22.4923 29.4343 22.4923Z" fill="#AA7138"/>
<path d="M7.6151 61.9327H5.48813V63.9093H4.7334V59.3882H5.48813V61.3193H7.63797V59.3882H8.3927V63.9093H7.63797V61.9327H7.6151Z" fill="#AA7138"/>
<path d="M14.865 63.9775C13.5843 63.9775 12.5322 63.0233 12.5322 61.6601C12.5322 60.297 13.5843 59.3428 14.865 59.3428C16.1687 59.3428 17.1978 60.297 17.1978 61.6601C17.1978 63.0006 16.1687 63.9775 14.865 63.9775ZM14.865 63.3186C15.7799 63.3186 16.4202 62.6598 16.4202 61.6374C16.4202 60.615 15.757 59.9789 14.865 59.9789C13.9502 59.9789 13.3098 60.615 13.3098 61.6374C13.3098 62.6825 13.9502 63.3186 14.865 63.3186Z" fill="#AA7138"/>
<path d="M21.1318 59.4106H24.3109V60.0241H23.0987V63.9318H22.344V60.0241H21.1318V59.4106Z" fill="#AA7138"/>
<path d="M31.0119 60.0013H29.2508V61.3191H30.8289V61.9325H29.2508V63.3184H31.0119V63.9318H28.4961V59.4106H31.0119V60.0013Z" fill="#AA7138"/>
<path d="M36.1122 59.4106V63.3411H37.6445V63.9318H35.3574V59.4106H36.1122Z" fill="#AA7138"/>
<path d="M43.2015 63.9775C42.2867 63.9775 41.6006 63.4777 41.6006 62.6825H42.4011C42.4239 63.046 42.6984 63.3413 43.2015 63.3413C43.7276 63.3413 44.0249 63.0687 44.0249 62.6825C44.0249 61.592 41.6006 62.2963 41.6006 60.6378C41.6006 59.8426 42.241 59.3428 43.1558 59.3428C44.0249 59.3428 44.6424 59.7972 44.711 60.5696H43.9105C43.8877 60.2743 43.6132 59.9789 43.1558 59.9789C42.7213 59.9562 42.4011 60.1834 42.4011 60.615C42.4011 61.6374 44.8025 61.0013 44.8025 62.6598C44.7796 63.3186 44.2307 63.9775 43.2015 63.9775Z" fill="#AA7138"/>
<path d="M56.3983 60.4104C56.4212 60.0696 56.2154 59.9106 55.9409 59.9106C55.6436 59.9106 55.4606 60.115 55.4606 60.3422C55.4606 60.5921 55.5979 60.7966 55.918 61.1374L57.1302 62.3188L57.5876 61.5463H58.3881L57.7934 62.546C57.7477 62.6369 57.6791 62.7277 57.6333 62.8186L58.7311 63.9091H57.7477L57.1759 63.3412C56.7414 63.7728 56.2382 63.9773 55.5979 63.9773C54.6144 63.9773 53.9512 63.432 53.9512 62.5914C53.9512 61.978 54.2942 61.4555 55.0261 61.1828C54.7745 60.8875 54.683 60.6376 54.683 60.3195C54.683 59.7288 55.1633 59.2744 55.9409 59.2744C56.7414 59.2744 57.1531 59.7742 57.1073 60.3877H56.3983V60.4104ZM56.6956 62.8641L55.4835 61.6599C54.9575 61.8644 54.7059 62.1825 54.7059 62.5914C54.7059 63.0231 55.049 63.3639 55.5979 63.3639C56.0553 63.3639 56.3983 63.2048 56.6956 62.8641Z" fill="#AA7138"/>
<path d="M69.389 59.4106C70.4639 59.4106 70.99 60.0241 70.99 60.7738C70.99 61.2963 70.6927 61.887 69.9379 62.0688L71.0586 63.9318H70.1666L69.1146 62.1142H68.5428V63.9318H67.7881V59.4106H69.389ZM69.389 60.0013H68.5657V61.5235H69.389C69.9608 61.5235 70.2352 61.2055 70.2352 60.7511C70.2124 60.2967 69.9608 60.0013 69.389 60.0013Z" fill="#AA7138"/>
<path d="M77.8966 60.0013H76.1356V61.3191H77.7137V61.9325H76.1356V63.3184H77.8966V63.9318H75.3809V59.4106H77.8966V60.0013Z" fill="#AA7138"/>
<path d="M83.7513 63.9775C82.8365 63.9775 82.1504 63.4777 82.1504 62.6825H82.9509C82.9737 63.046 83.2482 63.3413 83.7513 63.3413C84.2774 63.3413 84.5747 63.0687 84.5747 62.6825C84.5747 61.592 82.1504 62.2963 82.1504 60.6378C82.1504 59.8426 82.7908 59.3428 83.7056 59.3428C84.5747 59.3428 85.1922 59.7972 85.2608 60.5696H84.4375C84.4146 60.2743 84.1401 59.9789 83.6827 59.9789C83.2482 59.9562 82.9051 60.1834 82.9051 60.615C82.9051 61.6374 85.3066 61.0013 85.3066 62.6598C85.3294 63.3186 84.7577 63.9775 83.7513 63.9775Z" fill="#AA7138"/>
<path d="M91.7332 63.9775C90.4524 63.9775 89.4004 63.0233 89.4004 61.6601C89.4004 60.297 90.4524 59.3428 91.7332 59.3428C93.0368 59.3428 94.066 60.297 94.066 61.6601C94.0431 63.0006 93.014 63.9775 91.7332 63.9775ZM91.7332 63.3186C92.6251 63.3186 93.2884 62.6598 93.2884 61.6374C93.2884 60.615 92.6251 59.9789 91.7332 59.9789C90.8184 59.9789 90.178 60.615 90.178 61.6374C90.1551 62.6825 90.8184 63.3186 91.7332 63.3186Z" fill="#AA7138"/>
<path d="M99.7845 59.4106C100.859 59.4106 101.385 60.0241 101.385 60.7738C101.385 61.2963 101.088 61.887 100.333 62.0688L101.454 63.9318H100.562L99.5101 62.1142H98.9383V63.9318H98.1836V59.4106H99.7845ZM99.7845 60.0013H98.9612V61.5235H99.7845C100.356 61.5235 100.631 61.2055 100.631 60.7511C100.631 60.2967 100.379 60.0013 99.7845 60.0013Z" fill="#AA7138"/>
<path d="M105.57 59.4106H108.749V60.0241H107.537V63.9318H106.782V60.0241H105.57V59.4106Z" fill="#AA7138"/>
<path d="M114.421 63.9775C113.506 63.9775 112.82 63.4777 112.82 62.6825H113.621C113.644 63.046 113.918 63.3413 114.421 63.3413C114.947 63.3413 115.245 63.0687 115.245 62.6825C115.245 61.592 112.82 62.2963 112.82 60.6378C112.82 59.8426 113.461 59.3428 114.376 59.3428C115.245 59.3428 115.862 59.7972 115.931 60.5696H115.107C115.085 60.2743 114.81 59.9789 114.353 59.9789C113.918 59.9562 113.575 60.1834 113.575 60.615C113.575 61.6374 115.976 61.0013 115.976 62.6598C115.999 63.3186 115.45 63.9775 114.421 63.9775Z" fill="#AA7138"/>
<path d="M63.0085 0L49.8578 43.9617L42.2648 22.651C42.219 22.5147 42.3105 22.492 42.4477 22.492H45.7411C45.7868 22.492 45.8097 22.2421 45.8097 22.0149C45.8097 21.7877 45.7868 21.5378 45.7411 21.5378H34.2829C34.2143 21.5378 34.2143 22.492 34.2829 22.492H37.5534C37.6449 22.492 37.7135 22.492 37.7592 22.5147C37.805 22.5374 37.8279 22.5829 37.8507 22.651L48.051 50.5275C48.0739 50.5957 48.2797 50.6184 48.4856 50.6184C48.6914 50.6184 48.8744 50.5957 48.8744 50.5275L63.9919 0H63.0085Z" fill="#AA7138"/>
<path d="M50.9557 50.6411L66.1418 0H65.4557L50.2695 50.6411H50.9557Z" fill="#AA7138"/>
</g>
<defs>
<clipPath id="clip0">
<rect width="116" height="64" fill="white"/>
</clipPath>
</defs>
</svg>
